<svg width="24" height="24" viewBox="0 0 24 24" fill="none" xmlns="http://www.w3.org/2000/svg">
    <path fill-rule="evenodd" clip-rule="evenodd"
          d="M0.292878 0.292893C0.683402 -0.0976311 1.31657 -0.0976311 1.70709 0.292893L10.5831 9.16889C10.583 9.16883 10.5831 9.16895 10.5831 9.16889C10.5854 9.17113 10.5878 9.17356 10.59 9.17583C10.59 9.17577 10.5901 9.17589 10.59 9.17583L14.824 13.4098C14.824 13.4098 14.8241 13.4099 14.824 13.4098C14.8263 13.4121 14.8287 13.4145 14.8309 13.4167C14.8308 13.4166 14.8309 13.4168 14.8309 13.4167L23.7071 22.2929C24.0976 22.6834 24.0976 23.3166 23.7071 23.7071C23.3166 24.0976 22.6834 24.0976 22.2929 23.7071L17.8261 19.2403C16.0962 20.3536 14.0848 20.9661 12.0163 20.9999L12 21C8.10048 21 5.10447 18.7736 3.14545 16.6839C2.15682 15.6294 1.40205 14.5787 0.89432 13.7925C0.639835 13.3985 0.445777 13.0684 0.313956 12.834C0.248008 12.7168 0.197525 12.6233 0.162738 12.5576C0.145342 12.5247 0.13186 12.4987 0.122323 12.4802L0.110975 12.458L0.107524 12.4511L0.106355 12.4488C0.106171 12.4484 0.105558 12.4472 0.999985 12L0.105558 12.4472C-0.0397539 12.1566 -0.0348047 11.8135 0.118829 11.5272C1.25034 9.4185 2.75968 7.53966 4.56846 5.98269L0.292878 1.70711C-0.0976463 1.31658 -0.0976463 0.683417 0.292878 0.292893ZM5.98708 7.40131C4.4503 8.70137 3.14933 10.2582 2.14256 12.0032C2.25163 12.1915 2.39591 12.4311 2.5744 12.7075C3.03542 13.4213 3.71815 14.3706 4.60452 15.3161C6.39393 17.2248 8.8951 18.9969 11.9918 19C13.5373 18.9733 15.0437 18.5524 16.3714 17.7856L14.0497 15.464C13.891 15.5635 13.7251 15.6519 13.5531 15.7286C13.0625 15.9472 12.5328 16.0647 11.9957 16.0742C11.4586 16.0837 10.9251 15.9849 10.4271 15.7837C9.92901 15.5825 9.47656 15.2831 9.09672 14.9033C8.71689 14.5234 8.41745 14.071 8.21627 13.5729C8.0151 13.0748 7.9163 12.5414 7.92577 12.0043C7.93525 11.4672 8.05281 10.9375 8.27143 10.4469C8.34804 10.2749 8.43651 10.109 8.53603 9.95026L5.98708 7.40131ZM10.0279 11.4421C9.9637 11.6345 9.92905 11.836 9.92546 12.0396C9.92072 12.3081 9.97012 12.5748 10.0707 12.8239C10.1713 13.0729 10.321 13.2991 10.5109 13.489C10.7009 13.679 10.9271 13.8287 11.1761 13.9293C11.4251 14.0299 11.6919 14.0793 11.9604 14.0745C12.164 14.0709 12.3654 14.0363 12.5579 13.9721L10.0279 11.4421ZM11.9976 5C11.3682 4.99852 10.7408 5.07023 10.1279 5.21368C9.59015 5.33955 9.05217 5.00566 8.9263 4.46791C8.80043 3.93016 9.13432 3.39219 9.67207 3.26632C10.4355 3.08762 11.2171 2.99825 12.0011 3C12.0015 3 12.0019 3 12.0023 3L12 4V3C12.0004 3 12.0007 3 12.0011 3C15.9001 3.00043 18.8957 5.22664 20.8545 7.31606C21.8432 8.3706 22.5979 9.42131 23.1056 10.2075C23.3601 10.6015 23.5542 10.9316 23.686 11.166C23.752 11.2832 23.8024 11.3767 23.8372 11.4424C23.8546 11.4753 23.8681 11.5013 23.8776 11.5198L23.889 11.542L23.8924 11.5489L23.8936 11.5512C23.8938 11.5516 23.8944 11.5528 23 12L22.1181 11.5286C22.0337 11.6864 21.947 11.8428 21.858 11.9978C21.7488 11.8092 21.6044 11.5694 21.4256 11.2925C20.9646 10.5787 20.2818 9.62941 19.3954 8.68394C17.6045 6.77356 15.1005 5 12 5L11.9976 5ZM21.858 11.9978C21.3406 12.8982 20.7439 13.751 20.0748 14.5462C19.7192 14.9687 19.7736 15.5996 20.1961 15.9552C20.6187 16.3107 21.2496 16.2564 21.6051 15.8338C22.479 14.7953 23.2421 13.6684 23.8819 12.4714C24.0348 12.1854 24.0395 11.8429 23.8944 11.5528L23 12C22.1056 12.4472 22.1057 12.4475 22.1058 12.4477L22.1051 12.4464L22.0989 12.4343C22.0929 12.4226 22.0831 12.4036 22.0695 12.3779C22.0423 12.3264 22 12.248 21.9429 12.1465C21.9175 12.1014 21.8891 12.0517 21.858 11.9978Z"
          fill="black"/>
</svg>
